<svg width="18" height="18" fill="none" xmlns="http://www.w3.org/2000/svg"><path fill-rule="evenodd" clip-rule="evenodd" d="M2.913 8.2462c0-2.9455 2.3877-5.3333 5.3333-5.3333 2.9455 0 5.3333 2.3878 5.3333 5.3333 0 1.4393-.5701 2.7453-1.4967 3.7048a.6766.6766 0 0 0-.1319.1319c-.9595.9266-2.2655 1.4967-3.7047 1.4967-2.9456 0-5.3334-2.3878-5.3334-5.3334Zm9.5524 5.162c-1.1493.9405-2.6183 1.5047-4.2191 1.5047-3.682 0-6.6667-2.9848-6.6667-6.6667 0-3.6819 2.9848-6.6666 6.6667-6.6666 3.6819 0 6.6666 2.9847 6.6666 6.6666 0 1.6009-.5642 3.07-1.5047 4.2192l2.8094 2.8094a.6667.6667 0 1 1-.9428.9429l-2.8094-2.8095Z" fill="#2D3440"/></svg>